<svg width="292" height="292" viewBox="0 0 292 292" fill="none" xmlns="http://www.w3.org/2000/svg">
<path d="M100.545 99.9991C113.218 75.7923 120.133 52.7768 150.565 48.5428C176.997 44.8636 207.855 60.4039 225.375 79.5357C259.44 116.655 231.186 200.208 177.82 192.411C141.741 187.155 128.922 177.747 94.4308 189.918C71.6548 197.948 41.573 198.321 23.9537 178.313C5.91391 157.827 21.4074 144.366 42.0927 136.265C65.587 127.114 86.2898 127.208 100.545 99.9991Z" fill="#00ECBC"/>
<path opacity="0.9" d="M100.545 99.9991C113.218 75.7923 120.133 52.7768 150.565 48.5428C176.997 44.8636 207.855 60.4039 225.375 79.5357C259.44 116.655 231.186 200.208 177.82 192.411C141.741 187.155 128.922 177.747 94.4308 189.918C71.6548 197.948 41.573 198.321 23.9537 178.313C5.91391 157.827 21.4074 144.366 42.0927 136.265C65.587 127.114 86.2898 127.208 100.545 99.9991Z" fill="white"/>
<path d="M182.991 126H102.008C98.1376 126 95 129.138 95 133.008V239.238C95 243.108 98.1376 246.246 102.008 246.246H182.991C186.862 246.246 189.999 243.108 189.999 239.238V133.008C189.999 129.138 186.862 126 182.991 126Z" fill="#263238"/>
<path d="M188.446 126H107.463C103.592 126 100.455 129.138 100.455 133.008V239.238C100.455 243.108 103.592 246.246 107.463 246.246H188.446C192.316 246.246 195.454 243.108 195.454 239.238V133.008C195.454 129.138 192.316 126 188.446 126Z" fill="#00ECBC"/>
<path d="M117.052 246.251H109.168C108.926 246.251 108.73 246.447 108.73 246.689V247.956C108.73 248.198 108.926 248.394 109.168 248.394H117.052C117.294 248.394 117.49 248.198 117.49 247.956V246.689C117.49 246.447 117.294 246.251 117.052 246.251Z" fill="#263238"/>
<path d="M186.735 246.251H178.851C178.609 246.251 178.413 246.447 178.413 246.689V247.956C178.413 248.198 178.609 248.394 178.851 248.394H186.735C186.977 248.394 187.173 248.198 187.173 247.956V246.689C187.173 246.447 186.977 246.251 186.735 246.251Z" fill="#263238"/>
<path opacity="0.2" d="M188.446 126H107.463C103.592 126 100.455 129.138 100.455 133.008V239.238C100.455 243.108 103.592 246.246 107.463 246.246H188.446C192.316 246.246 195.454 243.108 195.454 239.238V133.008C195.454 129.138 192.316 126 188.446 126Z" fill="black"/>
<g style="mix-blend-mode:color-dodge" opacity="0.4">
<path d="M178.903 232.382H116.999C116.29 232.38 115.611 232.098 115.11 231.596C114.608 231.095 114.326 230.416 114.325 229.707V142.551C114.325 141.841 114.606 141.16 115.108 140.657C115.609 140.155 116.289 139.872 116.999 139.87H178.903C179.613 139.872 180.294 140.155 180.795 140.657C181.296 141.16 181.578 141.841 181.578 142.551V229.707C181.576 230.416 181.294 231.095 180.793 231.596C180.292 232.098 179.612 232.38 178.903 232.382ZM116.999 140.162C116.367 140.164 115.761 140.416 115.314 140.864C114.867 141.312 114.617 141.918 114.617 142.551V229.707C114.617 230.02 114.678 230.33 114.798 230.619C114.918 230.908 115.093 231.17 115.314 231.392C115.536 231.613 115.798 231.788 116.087 231.908C116.377 232.028 116.686 232.09 116.999 232.09H178.903C179.535 232.09 180.141 231.839 180.588 231.392C181.035 230.945 181.286 230.339 181.286 229.707V142.551C181.286 141.918 181.035 141.312 180.588 140.864C180.142 140.416 179.536 140.164 178.903 140.162H116.999Z" fill="#E6E6E6"/>
</g>
<path d="M180.27 229.706V142.544C180.27 141.793 179.661 141.184 178.909 141.184H116.999C116.248 141.184 115.639 141.793 115.639 142.544V229.706C115.639 230.458 116.248 231.067 116.999 231.067H178.909C179.661 231.067 180.27 230.458 180.27 229.706Z" fill="#00ECBC"/>
<path opacity="0.1" d="M180.27 229.706V142.544C180.27 141.793 179.661 141.184 178.909 141.184H116.999C116.248 141.184 115.639 141.793 115.639 142.544V229.706C115.639 230.458 116.248 231.067 116.999 231.067H178.909C179.661 231.067 180.27 230.458 180.27 229.706Z" fill="white"/>
<path d="M197.492 150.791H196.908V155.72H197.492V150.791Z" fill="#00ECBC"/>
<path d="M197.492 133.008H196.908V145.599H197.492V133.008Z" fill="#00ECBC"/>
<path opacity="0.1" d="M147.951 207.743C158.95 207.743 167.866 198.827 167.866 187.828C167.866 176.83 158.95 167.914 147.951 167.914C136.953 167.914 128.037 176.83 128.037 187.828C128.037 198.827 136.953 207.743 147.951 207.743Z" fill="black"/>
<path d="M147.951 158.254C150.638 158.254 152.816 156.076 152.816 153.389C152.816 150.702 150.638 148.524 147.951 148.524C145.265 148.524 143.087 150.702 143.087 153.389C143.087 156.076 145.265 158.254 147.951 158.254Z" fill="#00ECBC"/>
<path opacity="0.6" d="M147.922 158.243C150.609 158.243 152.787 156.065 152.787 153.378C152.787 150.692 150.609 148.514 147.922 148.514C145.235 148.514 143.057 150.692 143.057 153.378C143.057 156.065 145.235 158.243 147.922 158.243Z" fill="white"/>
<path d="M147.951 157.232C147.191 157.232 146.448 157.007 145.816 156.585C145.184 156.162 144.692 155.562 144.401 154.86C144.11 154.158 144.034 153.385 144.182 152.64C144.331 151.895 144.697 151.21 145.234 150.672C145.771 150.135 146.456 149.769 147.202 149.621C147.947 149.472 148.72 149.549 149.422 149.839C150.124 150.13 150.724 150.623 151.146 151.255C151.569 151.887 151.794 152.63 151.794 153.39C151.792 154.408 151.387 155.385 150.667 156.105C149.946 156.825 148.97 157.231 147.951 157.232ZM147.951 149.839C147.249 149.839 146.562 150.047 145.979 150.437C145.395 150.827 144.94 151.382 144.671 152.031C144.402 152.68 144.332 153.394 144.469 154.082C144.606 154.771 144.944 155.404 145.441 155.9C145.937 156.397 146.57 156.735 147.259 156.872C147.947 157.009 148.661 156.939 149.31 156.67C149.959 156.401 150.513 155.946 150.904 155.362C151.294 154.778 151.502 154.092 151.502 153.39C151.5 152.448 151.126 151.546 150.46 150.881C149.795 150.215 148.892 149.84 147.951 149.839Z" fill="#00ECBC"/>
<path d="M115.557 152.631H113.39C112.913 152.631 112.526 153.018 112.526 153.495V165.35C112.526 165.828 112.913 166.215 113.39 166.215H115.557C116.034 166.215 116.421 165.828 116.421 165.35V153.495C116.421 153.018 116.034 152.631 115.557 152.631Z" fill="#00ECBC"/>
<path opacity="0.6" d="M115.557 152.631H113.39C112.913 152.631 112.526 153.018 112.526 153.495V165.35C112.526 165.828 112.913 166.215 113.39 166.215H115.557C116.034 166.215 116.421 165.828 116.421 165.35V153.495C116.421 153.018 116.034 152.631 115.557 152.631Z" fill="white"/>
<path d="M115.557 206.037H113.39C112.913 206.037 112.526 206.424 112.526 206.901V218.757C112.526 219.234 112.913 219.621 113.39 219.621H115.557C116.034 219.621 116.421 219.234 116.421 218.757V206.901C116.421 206.424 116.034 206.037 115.557 206.037Z" fill="#00ECBC"/>
<path opacity="0.6" d="M115.557 206.037H113.39C112.913 206.037 112.526 206.424 112.526 206.901V218.757C112.526 219.234 112.913 219.621 113.39 219.621H115.557C116.034 219.621 116.421 219.234 116.421 218.757V206.901C116.421 206.424 116.034 206.037 115.557 206.037Z" fill="white"/>
<path d="M147.951 206.043C158.95 206.043 167.866 197.127 167.866 186.128C167.866 175.13 158.95 166.214 147.951 166.214C136.953 166.214 128.037 175.13 128.037 186.128C128.037 197.127 136.953 206.043 147.951 206.043Z" fill="#00ECBC"/>
<path opacity="0.6" d="M147.951 206.043C158.95 206.043 167.866 197.127 167.866 186.128C167.866 175.13 158.95 166.214 147.951 166.214C136.953 166.214 128.037 175.13 128.037 186.128C128.037 197.127 136.953 206.043 147.951 206.043Z" fill="white"/>
<path d="M138.099 175.444L137.273 176.27L157.813 196.81L158.639 195.984L138.099 175.444Z" fill="#00ECBC"/>
<path d="M157.813 175.443L137.273 195.983L138.099 196.809L158.639 176.269L157.813 175.443Z" fill="#00ECBC"/>
<path opacity="0.2" d="M157.745 175.377L137.205 195.917L138.031 196.743L158.571 176.203L157.745 175.377Z" fill="black"/>
<path opacity="0.2" d="M138.035 175.381L137.209 176.207L157.75 196.747L158.576 195.921L138.035 175.381Z" fill="black"/>
<path d="M147.893 201.178C144.902 201.179 141.978 200.293 139.491 198.633C137.004 196.972 135.065 194.611 133.92 191.848C132.775 189.086 132.474 186.045 133.057 183.112C133.64 180.179 135.079 177.484 137.194 175.369C139.308 173.254 142.002 171.813 144.935 171.229C147.868 170.646 150.909 170.945 153.672 172.089C156.435 173.233 158.797 175.171 160.458 177.658C162.12 180.144 163.007 183.068 163.007 186.058C163.004 190.066 161.41 193.909 158.577 196.744C155.743 199.579 151.901 201.173 147.893 201.178ZM147.893 172.106C145.133 172.105 142.435 172.923 140.14 174.455C137.845 175.987 136.056 178.166 134.999 180.715C133.942 183.264 133.665 186.07 134.203 188.777C134.74 191.483 136.069 193.97 138.02 195.922C139.97 197.873 142.456 199.203 145.163 199.741C147.87 200.28 150.675 200.004 153.225 198.949C155.774 197.893 157.954 196.105 159.487 193.81C161.02 191.516 161.839 188.818 161.839 186.058C161.836 182.36 160.366 178.814 157.751 176.198C155.136 173.583 151.591 172.111 147.893 172.106Z" fill="#00ECBC"/>
<path d="M152.361 190.532C154.831 188.062 154.831 184.057 152.361 181.587C149.891 179.117 145.886 179.117 143.416 181.587C140.946 184.057 140.946 188.062 143.416 190.532C145.886 193.002 149.891 193.002 152.361 190.532Z" fill="#00ECBC"/>
<path opacity="0.2" d="M147.893 201.178C144.902 201.179 141.978 200.293 139.491 198.633C137.004 196.972 135.065 194.611 133.92 191.848C132.775 189.086 132.474 186.045 133.057 183.112C133.64 180.179 135.079 177.484 137.194 175.369C139.308 173.254 142.002 171.813 144.935 171.229C147.868 170.646 150.909 170.945 153.672 172.089C156.435 173.233 158.797 175.171 160.458 177.658C162.12 180.144 163.007 183.068 163.007 186.058C163.004 190.066 161.41 193.909 158.577 196.744C155.743 199.579 151.901 201.173 147.893 201.178ZM147.893 172.106C145.133 172.105 142.435 172.923 140.14 174.455C137.845 175.987 136.056 178.166 134.999 180.715C133.942 183.264 133.665 186.07 134.203 188.777C134.74 191.483 136.069 193.97 138.02 195.922C139.97 197.873 142.456 199.203 145.163 199.741C147.87 200.28 150.675 200.004 153.225 198.949C155.774 197.893 157.954 196.105 159.487 193.81C161.02 191.516 161.839 188.818 161.839 186.058C161.836 182.36 160.366 178.814 157.751 176.198C155.136 173.583 151.591 172.111 147.893 172.106Z" fill="black"/>
<path opacity="0.2" d="M152.361 190.532C154.831 188.062 154.831 184.057 152.361 181.587C149.891 179.117 145.886 179.117 143.416 181.587C140.946 184.057 140.946 188.062 143.416 190.532C145.886 193.002 149.891 193.002 152.361 190.532Z" fill="black"/>
</svg>
