<svg width="114" height="158" viewBox="0 0 114 158" fill="none" xmlns="http://www.w3.org/2000/svg">
<path d="M27.526 94.0449L5.72503 144.709C5.62049 144.945 5.59 145.207 5.63759 145.46C5.68518 145.714 5.8086 145.947 5.99156 146.129C6.17452 146.311 6.4084 146.433 6.66229 146.48C6.91618 146.526 7.17814 146.494 7.41354 146.388L24.2194 138.966C24.3844 138.89 24.5636 138.85 24.7452 138.849C24.9268 138.847 25.1066 138.884 25.2729 138.957C25.4391 139.03 25.5879 139.138 25.7095 139.273C25.8311 139.408 25.9227 139.567 25.9782 139.74L31.6505 156.757C31.7373 157.007 31.9 157.224 32.1159 157.378C32.3318 157.532 32.5903 157.614 32.8553 157.614C33.1204 157.614 33.3788 157.532 33.5947 157.378C33.8106 157.224 33.9733 157.007 34.0601 156.757L54.5595 102.109L27.526 94.0449Z" fill="#00ECBC"/>
<path d="M55.9402 102.514L66.379 156.669C66.4278 156.922 66.5515 157.154 66.7342 157.336C66.9169 157.518 67.1501 157.64 67.4034 157.688C67.6566 157.735 67.9183 157.705 68.1544 157.602C68.3905 157.499 68.59 157.327 68.727 157.109L78.4535 141.534C78.548 141.383 78.673 141.253 78.8204 141.152C78.9679 141.052 79.1347 140.984 79.3101 140.951C79.4855 140.919 79.6656 140.924 79.8392 140.965C80.0127 141.006 80.1757 141.083 80.3178 141.191L94.5734 152.087C94.7841 152.246 95.0388 152.336 95.3025 152.345C95.5663 152.354 95.8264 152.281 96.0475 152.137C96.2686 151.993 96.4398 151.784 96.538 151.539C96.6362 151.294 96.6564 151.025 96.596 150.768L82.8242 94.0449L55.9402 102.514Z" fill="#00ECBC"/>
<g opacity="0.3">
<path d="M27.526 94.0449L5.72503 144.709C5.62049 144.945 5.59 145.207 5.63759 145.46C5.68518 145.714 5.8086 145.947 5.99156 146.129C6.17452 146.311 6.4084 146.433 6.66229 146.48C6.91618 146.526 7.17814 146.494 7.41354 146.388L24.2194 138.966C24.3844 138.89 24.5636 138.85 24.7452 138.849C24.9268 138.847 25.1066 138.884 25.2729 138.957C25.4391 139.03 25.5879 139.138 25.7095 139.273C25.8311 139.408 25.9227 139.567 25.9782 139.74L31.6505 156.757C31.7373 157.007 31.9 157.224 32.1159 157.378C32.3318 157.532 32.5903 157.614 32.8553 157.614C33.1204 157.614 33.3788 157.532 33.5947 157.378C33.8106 157.224 33.9733 157.007 34.0601 156.757L54.5595 102.109L27.526 94.0449Z" fill="black"/>
</g>
<g opacity="0.3">
<path d="M55.9402 102.514L66.379 156.669C66.4278 156.922 66.5515 157.154 66.7342 157.336C66.9169 157.518 67.1501 157.64 67.4034 157.688C67.6566 157.735 67.9183 157.705 68.1544 157.602C68.3905 157.499 68.59 157.327 68.727 157.109L78.4535 141.534C78.548 141.383 78.673 141.253 78.8204 141.152C78.9679 141.052 79.1347 140.984 79.3101 140.951C79.4855 140.919 79.6656 140.924 79.8392 140.965C80.0127 141.006 80.1757 141.083 80.3178 141.191L94.5734 152.087C94.7841 152.246 95.0388 152.336 95.3025 152.345C95.5663 152.354 95.8264 152.281 96.0475 152.137C96.2686 151.993 96.4398 151.784 96.538 151.539C96.6362 151.294 96.6564 151.025 96.596 150.768L82.8242 94.0449L55.9402 102.514Z" fill="black"/>
</g>
<path d="M56.9956 5.27556L64.1541 0.0166016L69.7824 6.88491L78.0227 3.57827L81.7602 11.6338L90.5721 10.473L92.1814 19.2057L101.002 20.2698L100.395 29.1344L108.671 32.3531L105.883 40.7868L113.094 45.9754L108.301 53.4505L114 60.2573L107.483 66.3077L111.318 74.3193L103.508 78.5581L105.223 87.2732L96.6049 89.4366L96.0948 98.3012L87.2127 98.2573L84.5128 106.717L75.9208 104.466L71.1983 111.985L63.4418 107.667L56.9956 113.779L50.5582 107.667L42.8017 111.985L38.0792 104.466L29.4871 106.717L26.7873 98.2573L17.9051 98.3012L17.395 89.4366L8.77668 87.2732L10.4916 78.5581L2.68226 74.3193L6.50775 66.3077L0 60.2573L5.69869 53.4505L0.905807 45.9754L8.11711 40.7868L5.32054 32.3531L13.6047 29.1344L12.9979 20.2698L21.8186 19.2057L23.4279 10.473L32.2398 11.6338L35.9773 3.57827L44.2175 6.88491L49.8371 0.0166016L56.9956 5.27556Z" fill="#00ECBC"/>
<path d="M85.4453 85.349C101.158 69.6367 101.158 44.1621 85.4453 28.4498C69.7331 12.7376 44.2585 12.7376 28.5462 28.4499C12.834 44.1621 12.834 69.6367 28.5462 85.349C44.2585 101.061 69.7331 101.061 85.4453 85.349Z" fill="white"/>
<path d="M65.7724 47.365L76.5629 48.948C76.9629 49.006 77.3386 49.1748 77.6474 49.4354C77.9563 49.6961 78.1861 50.038 78.3106 50.4225C78.4351 50.807 78.4494 51.2186 78.3519 51.6108C78.2544 52.003 78.049 52.3601 77.7589 52.6415L69.9408 60.2486C69.6883 60.493 69.4994 60.7954 69.3905 61.1296C69.2817 61.4638 69.2563 61.8195 69.3165 62.1657L71.1544 72.9387C71.2221 73.3364 71.1772 73.7451 71.0249 74.1187C70.8725 74.4923 70.6186 74.8157 70.2921 75.0527C69.9655 75.2896 69.5793 75.4305 69.1769 75.4594C68.7745 75.4883 68.372 75.4042 68.0149 75.2164L58.3412 70.1245C58.0311 69.9598 57.6854 69.8736 57.3343 69.8736C56.9831 69.8736 56.6374 69.9598 56.3273 70.1245L46.6536 75.19C46.2961 75.3761 45.8937 75.4586 45.4918 75.4282C45.0898 75.3978 44.7044 75.2558 44.3789 75.0181C44.0534 74.7803 43.8008 74.4564 43.6495 74.0828C43.4983 73.7092 43.4544 73.3007 43.5229 72.9035L45.3785 62.1569C45.4382 61.8114 45.4134 61.4566 45.3062 61.1227C45.199 60.7889 45.0126 60.4859 44.7629 60.2398L36.9536 52.6152C36.6634 52.3331 36.4581 51.9754 36.361 51.5825C36.2639 51.1897 36.279 50.7775 36.4045 50.3928C36.53 50.008 36.7609 49.6662 37.0709 49.4062C37.381 49.1461 37.7577 48.9782 38.1584 48.9216L48.9577 47.365C49.3047 47.3169 49.6346 47.1844 49.9183 46.9789C50.202 46.7734 50.4309 46.5013 50.5847 46.1866L55.4303 36.4073C55.6091 36.0458 55.8855 35.7415 56.2281 35.5287C56.5708 35.3159 56.9661 35.2031 57.3694 35.2031C57.7728 35.2031 58.1681 35.3159 58.5108 35.5287C58.8534 35.7415 59.1297 36.0458 59.3086 36.4073L64.119 46.2041C64.2787 46.518 64.513 46.788 64.8012 46.9903C65.0895 47.1927 65.4229 47.3213 65.7724 47.365Z" fill="#00ECBC"/>
</svg>
