<svg width="336" height="336" viewBox="0 0 336 336" fill="none" xmlns="http://www.w3.org/2000/svg">
<path d="M137.023 116.816C136.745 125.201 138.865 135.966 151.543 138.725C157.894 140.102 164.929 139.193 171.253 140.97C177.993 142.864 182.422 145.669 190.422 145.958C221.508 147.081 239.997 125.447 237.828 108.282C236.039 94.0867 220.732 67.2895 191.882 78.7987C186.197 81.0654 181.667 84.4789 176.067 86.7429C169.116 89.5641 160.42 89.2531 154.28 92.4421C145.023 97.2433 137.24 110.135 137.023 116.816Z" fill="#00ECBC"/>
<path opacity="0.9" d="M137.023 116.816C136.745 125.201 138.865 135.966 151.543 138.725C157.894 140.102 164.929 139.193 171.253 140.97C177.993 142.864 182.422 145.669 190.422 145.958C221.508 147.081 239.997 125.447 237.828 108.282C236.039 94.0867 220.732 67.2895 191.882 78.7987C186.197 81.0654 181.667 84.4789 176.067 86.7429C169.116 89.5641 160.42 89.2531 154.28 92.4421C145.023 97.2433 137.24 110.135 137.023 116.816Z" fill="white"/>
<path d="M168.313 125C159.551 133.338 137.137 141.761 111 159.627C111 159.627 112.632 219.998 168.313 253V125Z" fill="#00ECBC" stroke="white" stroke-linecap="round" stroke-linejoin="round"/>
<path d="M168.313 125C177.07 133.338 199.49 141.761 225.627 159.627C225.627 159.627 223.995 219.998 168.313 253V125Z" fill="#99F7E4" stroke="#99F7E4" stroke-linecap="round" stroke-linejoin="round"/>
<path d="M168.11 130C157.538 137.495 139.216 144.642 115 161.192C115 161.192 116.513 217.128 168.11 247.721C219.706 217.141 221.219 161.192 221.219 161.192C196.997 144.648 178.761 137.495 168.11 130Z" fill="#00BD96" stroke="#99F7E4" stroke-linecap="round" stroke-linejoin="round"/>
<path d="M212.371 155.39C175.425 166.577 147.242 199.052 134.427 216.182C143.242 229.118 154.815 239.937 168.314 247.861C219.91 217.281 221.423 161.332 221.423 161.332C218.305 159.209 215.287 157.228 212.371 155.39Z" fill="#00ECBC" stroke="#19EEC3" stroke-linecap="round" stroke-linejoin="round"/>
</svg>
